<?xml version="1.0" standalone="no"?><svg xmlns="http://www.w3.org/2000/svg" viewBox="0 0 1440 320"><path fill="#ffffff" fill-opacity="0.91" d="M0,160L30,170.7C60,181,120,203,180,186.7C240,171,300,117,360,101.3C420,85,480,107,540,122.7C600,139,660,149,720,165.3C780,181,840,203,900,197.3C960,192,1020,160,1080,138.7C1140,117,1200,107,1260,117.3C1320,128,1380,160,1410,176L1440,192L1440,0L1410,0C1380,0,1320,0,1260,0C1200,0,1140,0,1080,0C1020,0,960,0,900,0C840,0,780,0,720,0C660,0,600,0,540,0C480,0,420,0,360,0C300,0,240,0,180,0C120,0,60,0,30,0L0,0Z"></path></svg>